<svg xmlns="http://www.w3.org/2000/svg" width="120" height="120" viewBox="0 0 120 120"><path d="M 60 0 C 26.868824 0 0 26.86883 0 60 C 0 93.1311 26.868824 120 60 120 C 93.131137 120 120 93.1311 120 60 C 120 26.86883 93.131137 0 60 0 z M 60 1 C 92.590589 1 119 27.40937 119 60 C 119 92.5906 92.590589 119 60 119 C 27.409372 119 1 92.5906 1 60 C 1 27.40937 27.409372 1 60 1 z M 48.875 26.25 C 48.475 26.25 48.0625 26.5625 48.0625 27.0625 C 48.0625 27.5625 48.475 27.875 48.875 27.875 C 49.375 27.875 49.65625 27.5625 49.65625 27.0625 C 49.65625 26.5625 49.275 26.25 48.875 26.25 z M 42.375 26.375 C 41.875 26.375 41.5625 26.65625 41.5625 27.15625 C 41.5625 27.65625 41.875 27.96875 42.375 27.96875 C 42.875 27.96875 43.15625 27.65625 43.15625 27.15625 C 43.15625 26.65625 42.875 26.375 42.375 26.375 z M 45.65625 26.375 C 45.15625 26.375 44.78125 26.65625 44.78125 27.15625 C 44.78125 27.65625 45.15625 27.96875 45.65625 27.96875 C 46.05625 27.96875 46.46875 27.65625 46.46875 27.15625 C 46.46875 26.65625 46.05625 26.375 45.65625 26.375 z M 52.0625 26.375 C 51.5625 26.375 51.28125 26.65625 51.28125 27.15625 C 51.28125 27.65625 51.5625 27.96875 52.0625 27.96875 C 52.5625 27.96875 52.875 27.65625 52.875 27.15625 C 52.875 26.65625 52.5625 26.375 52.0625 26.375 z M 35.875 29.5625 C 35.475 29.5625 35.0625 29.975 35.0625 30.375 C 35.0625 30.875 35.475 31.15625 35.875 31.15625 C 36.375 31.15625 36.65625 30.775 36.65625 30.375 C 36.75625 29.975 36.375 29.5625 35.875 29.5625 z M 39.15625 29.5625 C 38.65625 29.5625 38.375 29.975 38.375 30.375 C 38.375 30.875 38.65625 31.15625 39.15625 31.15625 C 39.65625 31.15625 39.96875 30.775 39.96875 30.375 C 39.96875 29.975 39.55625 29.5625 39.15625 29.5625 z M 45.65625 29.5625 C 45.15625 29.5625 44.78125 29.975 44.78125 30.375 C 44.78125 30.875 45.15625 31.15625 45.65625 31.15625 C 46.05625 31.15625 46.46875 30.775 46.46875 30.375 C 46.46875 29.975 46.05625 29.5625 45.65625 29.5625 z M 48.875 29.5625 C 48.475 29.5625 48.0625 29.975 48.0625 30.375 C 48.0625 30.775 48.475 31.15625 48.875 31.15625 C 49.375 31.15625 49.65625 30.775 49.65625 30.375 C 49.65625 29.875 49.275 29.5625 48.875 29.5625 z M 52.0625 29.5625 C 51.5625 29.5625 51.28125 29.975 51.28125 30.375 C 51.28125 30.875 51.5625 31.25 52.0625 31.25 C 52.5625 31.25 52.875 30.875 52.875 30.375 C 52.875 29.975 52.5625 29.5625 52.0625 29.5625 z M 55.28125 29.5625 C 54.78125 29.5625 54.46875 29.975 54.46875 30.375 C 54.46875 30.875 54.78125 31.25 55.28125 31.25 C 55.78125 31.25 56.0625 30.875 56.0625 30.375 C 56.0625 29.975 55.78125 29.5625 55.28125 29.5625 z M 58.5625 29.5625 C 58.0625 29.5625 57.78125 29.975 57.78125 30.375 C 57.78125 30.875 58.1625 31.25 58.5625 31.25 C 58.9625 31.25 59.375 30.875 59.375 30.375 C 59.375 29.975 58.9625 29.5625 58.5625 29.5625 z M 61.78125 29.5625 C 61.28125 29.5625 60.96875 29.975 60.96875 30.375 C 60.96875 30.875 61.38125 31.25 61.78125 31.25 C 62.18125 31.25 62.5625 30.875 62.5625 30.375 C 62.5625 29.975 62.28125 29.5625 61.78125 29.5625 z M 64.96875 29.5625 C 64.46875 29.5625 64.15625 29.975 64.15625 30.375 C 64.15625 30.875 64.46875 31.25 64.96875 31.25 C 65.46875 31.25 65.78125 30.875 65.78125 30.375 C 65.78125 29.975 65.46875 29.5625 64.96875 29.5625 z M 68.28125 29.5625 C 67.78125 29.5625 67.46875 29.975 67.46875 30.375 C 67.46875 30.875 67.88125 31.25 68.28125 31.25 C 68.68125 31.25 69.0625 30.875 69.0625 30.375 C 69.0625 29.975 68.68125 29.5625 68.28125 29.5625 z M 35.875 32.75 C 35.475 32.75 35.0625 33.1625 35.0625 33.5625 C 35.0625 34.0625 35.475 34.375 35.875 34.375 C 36.375 34.375 36.65625 34.0625 36.65625 33.5625 C 36.75625 33.1625 36.375 32.75 35.875 32.75 z M 39.15625 32.75 C 38.65625 32.75 38.375 33.1625 38.375 33.5625 C 38.375 34.0625 38.65625 34.375 39.15625 34.375 C 39.65625 34.375 39.96875 34.0625 39.96875 33.5625 C 39.96875 33.1625 39.55625 32.75 39.15625 32.75 z M 42.375 32.75 C 41.875 32.75 41.5625 33.1625 41.5625 33.5625 C 41.5625 34.0625 41.875 34.375 42.375 34.375 C 42.875 34.375 43.15625 34.0625 43.15625 33.5625 C 43.15625 33.1625 42.875 32.75 42.375 32.75 z M 45.65625 32.75 C 45.15625 32.75 44.78125 33.1625 44.78125 33.5625 C 44.78125 34.0625 45.15625 34.375 45.65625 34.375 C 46.05625 34.375 46.46875 34.0625 46.46875 33.5625 C 46.46875 33.1625 46.05625 32.75 45.65625 32.75 z M 48.875 32.75 C 48.475 32.75 48.0625 33.1625 48.0625 33.5625 C 48.0625 34.0625 48.475 34.46875 48.875 34.46875 C 49.375 34.46875 49.65625 34.0625 49.65625 33.5625 C 49.65625 33.0625 49.275 32.75 48.875 32.75 z M 52.0625 32.75 C 51.5625 32.75 51.28125 33.1625 51.28125 33.5625 C 51.28125 34.0625 51.5625 34.375 52.0625 34.375 C 52.5625 34.375 52.875 34.0625 52.875 33.5625 C 52.875 33.1625 52.5625 32.75 52.0625 32.75 z M 55.28125 32.75 C 54.78125 32.75 54.46875 33.1625 54.46875 33.5625 C 54.46875 34.0625 54.78125 34.375 55.28125 34.375 C 55.78125 34.375 56.0625 34.0625 56.0625 33.5625 C 56.0625 33.1625 55.78125 32.75 55.28125 32.75 z M 58.5625 32.75 C 58.0625 32.75 57.78125 33.1625 57.78125 33.5625 C 57.78125 34.0625 58.1625 34.375 58.5625 34.375 C 58.9625 34.375 59.375 34.0625 59.375 33.5625 C 59.375 33.1625 58.9625 32.75 58.5625 32.75 z M 61.78125 32.75 C 61.28125 32.75 60.96875 33.1625 60.96875 33.5625 C 60.96875 34.0625 61.38125 34.375 61.78125 34.375 C 62.18125 34.375 62.5625 34.0625 62.5625 33.5625 C 62.5625 33.1625 62.28125 32.75 61.78125 32.75 z M 64.96875 32.75 C 64.46875 32.75 64.15625 33.1625 64.15625 33.5625 C 64.15625 34.0625 64.46875 34.375 64.96875 34.375 C 65.46875 34.375 65.78125 34.0625 65.78125 33.5625 C 65.78125 33.1625 65.46875 32.75 64.96875 32.75 z M 68.28125 32.75 C 67.78125 32.75 67.46875 33.1625 67.46875 33.5625 C 67.46875 34.0625 67.88125 34.375 68.28125 34.375 C 68.68125 34.375 69.0625 34.0625 69.0625 33.5625 C 69.0625 33.1625 68.68125 32.75 68.28125 32.75 z M 71.46875 32.75 C 71.06875 32.75 70.65625 33.1625 70.65625 33.5625 C 70.65625 34.0625 71.06875 34.375 71.46875 34.375 C 71.96875 34.375 72.375 34.0625 72.375 33.5625 C 72.275 33.1625 71.86875 32.75 71.46875 32.75 z M 48.875 35.96875 C 48.475 35.96875 48.0625 36.35 48.0625 36.75 C 48.0625 37.15 48.475 37.5625 48.875 37.5625 C 49.375 37.5625 49.65625 37.25 49.65625 36.75 C 49.65625 36.25 49.275 35.96875 48.875 35.96875 z M 35.875 36.0625 C 35.475 36.0625 35.0625 36.475 35.0625 36.875 C 35.0625 37.275 35.475 37.65625 35.875 37.65625 C 36.375 37.65625 36.65625 37.375 36.65625 36.875 C 36.65625 36.375 36.375 36.0625 35.875 36.0625 z M 39.15625 36.0625 C 38.65625 36.0625 38.375 36.475 38.375 36.875 C 38.375 37.275 38.65625 37.65625 39.15625 37.65625 C 39.65625 37.65625 39.96875 37.375 39.96875 36.875 C 39.96875 36.375 39.55625 36.0625 39.15625 36.0625 z M 42.375 36.0625 C 41.875 36.0625 41.5625 36.475 41.5625 36.875 C 41.5625 37.275 41.875 37.65625 42.375 37.65625 C 42.875 37.65625 43.15625 37.375 43.15625 36.875 C 43.15625 36.375 42.875 36.0625 42.375 36.0625 z M 45.65625 36.0625 C 45.15625 36.0625 44.78125 36.475 44.78125 36.875 C 44.78125 37.275 45.15625 37.65625 45.65625 37.65625 C 46.05625 37.65625 46.46875 37.375 46.46875 36.875 C 46.46875 36.375 46.05625 36.0625 45.65625 36.0625 z M 52.0625 36.0625 C 51.5625 36.0625 51.28125 36.475 51.28125 36.875 C 51.28125 37.275 51.5625 37.65625 52.0625 37.65625 C 52.5625 37.65625 52.875 37.375 52.875 36.875 C 52.875 36.375 52.5625 36.0625 52.0625 36.0625 z M 55.28125 36.0625 C 54.78125 36.0625 54.46875 36.475 54.46875 36.875 C 54.46875 37.275 54.78125 37.65625 55.28125 37.65625 C 55.78125 37.65625 56.0625 37.375 56.0625 36.875 C 56.0625 36.375 55.78125 36.0625 55.28125 36.0625 z M 58.5625 36.0625 C 58.0625 36.0625 57.78125 36.475 57.78125 36.875 C 57.78125 37.275 58.1625 37.65625 58.5625 37.65625 C 58.9625 37.65625 59.375 37.375 59.375 36.875 C 59.375 36.375 58.9625 36.0625 58.5625 36.0625 z M 61.78125 36.0625 C 61.28125 36.0625 60.96875 36.475 60.96875 36.875 C 60.96875 37.275 61.38125 37.65625 61.78125 37.65625 C 62.18125 37.65625 62.5625 37.375 62.5625 36.875 C 62.5625 36.375 62.28125 36.0625 61.78125 36.0625 z M 64.96875 36.0625 C 64.46875 36.0625 64.15625 36.475 64.15625 36.875 C 64.15625 37.275 64.46875 37.65625 64.96875 37.65625 C 65.46875 37.65625 65.78125 37.375 65.78125 36.875 C 65.78125 36.375 65.46875 36.0625 64.96875 36.0625 z M 68.28125 36.0625 C 67.78125 36.0625 67.46875 36.475 67.46875 36.875 C 67.46875 37.275 67.88125 37.65625 68.28125 37.65625 C 68.68125 37.65625 69.0625 37.375 69.0625 36.875 C 69.0625 36.375 68.68125 36.0625 68.28125 36.0625 z M 71.46875 36.0625 C 71.06875 36.0625 70.65625 36.475 70.65625 36.875 C 70.65625 37.275 71.06875 37.65625 71.46875 37.65625 C 71.96875 37.65625 72.375 37.375 72.375 36.875 C 72.375 36.375 71.86875 36.0625 71.46875 36.0625 z M 74.65625 36.0625 C 74.15625 36.0625 73.875 36.475 73.875 36.875 C 73.875 37.275 74.25625 37.65625 74.65625 37.65625 C 75.05625 37.65625 75.46875 37.375 75.46875 36.875 C 75.46875 36.375 75.15625 36.0625 74.65625 36.0625 z M 77.96875 36.0625 C 77.46875 36.0625 77.15625 36.475 77.15625 36.875 C 77.15625 37.275 77.56875 37.65625 77.96875 37.65625 C 78.36875 37.65625 78.78125 37.375 78.78125 36.875 C 78.78125 36.375 78.36875 36.0625 77.96875 36.0625 z M 35.875 39.25 C 35.475 39.25 35.0625 39.6625 35.0625 40.0625 C 35.0625 40.4625 35.475 40.875 35.875 40.875 C 36.375 40.875 36.65625 40.4625 36.65625 40.0625 C 36.75625 39.6625 36.375 39.25 35.875 39.25 z M 39.15625 39.25 C 38.65625 39.25 38.375 39.6625 38.375 40.0625 C 38.375 40.4625 38.65625 40.875 39.15625 40.875 C 39.65625 40.875 39.96875 40.4625 39.96875 40.0625 C 39.96875 39.6625 39.55625 39.25 39.15625 39.25 z M 42.375 39.25 C 41.875 39.25 41.5625 39.6625 41.5625 40.0625 C 41.5625 40.4625 41.875 40.875 42.375 40.875 C 42.875 40.875 43.15625 40.4625 43.15625 40.0625 C 43.15625 39.6625 42.875 39.25 42.375 39.25 z M 45.65625 39.25 C 45.15625 39.25 44.78125 39.6625 44.78125 40.0625 C 44.78125 40.4625 45.15625 40.875 45.65625 40.875 C 46.05625 40.875 46.46875 40.4625 46.46875 40.0625 C 46.46875 39.6625 46.05625 39.25 45.65625 39.25 z M 48.875 39.25 C 48.475 39.25 48.0625 39.6625 48.0625 40.0625 C 48.0625 40.4625 48.475 40.875 48.875 40.875 C 49.375 40.875 49.65625 40.5625 49.65625 40.0625 C 49.65625 39.5625 49.275 39.25 48.875 39.25 z M 52.0625 39.25 C 51.5625 39.25 51.28125 39.6625 51.28125 40.0625 C 51.28125 40.4625 51.5625 40.875 52.0625 40.875 C 52.5625 40.875 52.875 40.4625 52.875 40.0625 C 52.875 39.6625 52.5625 39.25 52.0625 39.25 z M 55.28125 39.25 C 54.78125 39.25 54.46875 39.6625 54.46875 40.0625 C 54.46875 40.4625 54.78125 40.875 55.28125 40.875 C 55.78125 40.875 56.0625 40.4625 56.0625 40.0625 C 56.0625 39.6625 55.78125 39.25 55.28125 39.25 z M 58.5625 39.25 C 58.0625 39.25 57.78125 39.6625 57.78125 40.0625 C 57.78125 40.4625 58.1625 40.875 58.5625 40.875 C 58.9625 40.875 59.375 40.4625 59.375 40.0625 C 59.375 39.6625 58.9625 39.25 58.5625 39.25 z M 61.78125 39.25 C 61.28125 39.25 60.96875 39.6625 60.96875 40.0625 C 60.96875 40.4625 61.38125 40.875 61.78125 40.875 C 62.18125 40.875 62.5625 40.4625 62.5625 40.0625 C 62.5625 39.6625 62.28125 39.25 61.78125 39.25 z M 64.96875 39.25 C 64.46875 39.25 64.15625 39.6625 64.15625 40.0625 C 64.15625 40.4625 64.46875 40.875 64.96875 40.875 C 65.46875 40.875 65.78125 40.4625 65.78125 40.0625 C 65.78125 39.6625 65.46875 39.25 64.96875 39.25 z M 68.28125 39.25 C 67.78125 39.25 67.46875 39.6625 67.46875 40.0625 C 67.46875 40.4625 67.88125 40.875 68.28125 40.875 C 68.68125 40.875 69.0625 40.4625 69.0625 40.0625 C 69.0625 39.6625 68.68125 39.25 68.28125 39.25 z M 71.46875 39.25 C 71.06875 39.25 70.65625 39.6625 70.65625 40.0625 C 70.65625 40.4625 71.06875 40.875 71.46875 40.875 C 71.96875 40.875 72.375 40.4625 72.375 40.0625 C 72.275 39.6625 71.86875 39.25 71.46875 39.25 z M 74.65625 39.25 C 74.15625 39.25 73.875 39.6625 73.875 40.0625 C 73.875 40.4625 74.25625 40.875 74.65625 40.875 C 75.05625 40.875 75.46875 40.4625 75.46875 40.0625 C 75.46875 39.6625 75.15625 39.25 74.65625 39.25 z M 77.96875 39.25 C 77.46875 39.25 77.15625 39.6625 77.15625 40.0625 C 77.15625 40.4625 77.56875 40.875 77.96875 40.875 C 78.36875 40.875 78.78125 40.4625 78.78125 40.0625 C 78.78125 39.6625 78.36875 39.25 77.96875 39.25 z M 81.15625 39.25 C 80.65625 39.25 80.375 39.6625 80.375 40.0625 C 80.375 40.4625 80.75625 40.875 81.15625 40.875 C 81.55625 40.875 81.96875 40.4625 81.96875 40.0625 C 81.96875 39.6625 81.55625 39.25 81.15625 39.25 z M 84.375 39.25 C 83.975 39.25 83.5625 39.6625 83.5625 40.0625 C 83.5625 40.4625 83.975 40.875 84.375 40.875 C 84.875 40.875 85.15625 40.4625 85.15625 40.0625 C 85.15625 39.6625 84.875 39.25 84.375 39.25 z M 87.65625 39.25 C 87.15625 39.25 86.875 39.5625 86.875 40.0625 C 86.875 40.5625 87.25625 40.875 87.65625 40.875 C 88.05625 40.875 88.46875 40.5625 88.46875 40.0625 C 88.46875 39.5625 88.05625 39.25 87.65625 39.25 z M 29.46875 42.46875 C 28.96875 42.46875 28.65625 42.85 28.65625 43.25 C 28.65625 43.75 29.06875 44.0625 29.46875 44.0625 C 29.86875 44.0625 30.28125 43.65 30.28125 43.25 C 30.28125 42.85 29.96875 42.46875 29.46875 42.46875 z M 32.65625 42.46875 C 32.15625 42.46875 31.875 42.85 31.875 43.25 C 31.875 43.75 32.25625 44.0625 32.65625 44.0625 C 33.05625 44.0625 33.46875 43.65 33.46875 43.25 C 33.46875 42.85 33.15625 42.46875 32.65625 42.46875 z M 35.875 42.46875 C 35.475 42.46875 35.0625 42.85 35.0625 43.25 C 35.0625 43.75 35.475 44.0625 35.875 44.0625 C 36.375 44.0625 36.65625 43.65 36.65625 43.25 C 36.75625 42.85 36.375 42.46875 35.875 42.46875 z M 39.15625 42.46875 C 38.65625 42.46875 38.375 42.85 38.375 43.25 C 38.375 43.75 38.65625 44.0625 39.15625 44.0625 C 39.65625 44.0625 39.96875 43.65 39.96875 43.25 C 39.96875 42.85 39.55625 42.46875 39.15625 42.46875 z M 42.375 42.46875 C 41.875 42.46875 41.5625 42.85 41.5625 43.25 C 41.5625 43.75 41.875 44.0625 42.375 44.0625 C 42.875 44.0625 43.15625 43.65 43.15625 43.25 C 43.15625 42.85 42.875 42.46875 42.375 42.46875 z M 45.65625 42.46875 C 45.15625 42.46875 44.78125 42.85 44.78125 43.25 C 44.78125 43.75 45.15625 44.0625 45.65625 44.0625 C 46.05625 44.0625 46.46875 43.65 46.46875 43.25 C 46.46875 42.85 46.05625 42.46875 45.65625 42.46875 z M 48.875 42.46875 C 48.475 42.46875 48.0625 42.85 48.0625 43.25 C 48.0625 43.75 48.475 44.0625 48.875 44.0625 C 49.375 44.0625 49.65625 43.65 49.65625 43.25 C 49.65625 42.85 49.275 42.46875 48.875 42.46875 z M 87.65625 42.46875 C 87.15625 42.46875 86.875 42.85 86.875 43.25 C 86.875 43.75 87.25625 44.0625 87.65625 44.0625 C 88.05625 44.0625 88.46875 43.65 88.46875 43.25 C 88.36875 42.85 88.05625 42.46875 87.65625 42.46875 z M 90.875 42.46875 C 90.375 42.46875 90.0625 42.85 90.0625 43.25 C 90.0625 43.75 90.475 44.0625 90.875 44.0625 C 91.275 44.0625 91.65625 43.65 91.65625 43.25 C 91.65625 42.85 91.275 42.46875 90.875 42.46875 z M 94.0625 42.46875 C 93.5625 42.46875 93.28125 42.85 93.28125 43.25 C 93.28125 43.75 93.6625 44.0625 94.0625 44.0625 C 94.4625 44.0625 94.875 43.65 94.875 43.25 C 94.875 42.85 94.4625 42.46875 94.0625 42.46875 z M 52.0625 42.5625 C 51.5625 42.5625 51.28125 42.975 51.28125 43.375 C 51.28125 43.875 51.5625 44.15625 52.0625 44.15625 C 52.5625 44.15625 52.875 43.775 52.875 43.375 C 52.875 42.875 52.5625 42.5625 52.0625 42.5625 z M 55.28125 42.5625 C 54.78125 42.5625 54.46875 42.975 54.46875 43.375 C 54.46875 43.875 54.78125 44.15625 55.28125 44.15625 C 55.78125 44.15625 56.0625 43.775 56.0625 43.375 C 56.0625 42.875 55.78125 42.5625 55.28125 42.5625 z M 58.5625 42.5625 C 58.0625 42.5625 57.78125 42.975 57.78125 43.375 C 57.78125 43.875 58.1625 44.15625 58.5625 44.15625 C 58.9625 44.15625 59.375 43.775 59.375 43.375 C 59.375 42.875 58.9625 42.5625 58.5625 42.5625 z M 61.78125 42.5625 C 61.28125 42.5625 60.96875 42.975 60.96875 43.375 C 60.96875 43.875 61.38125 44.15625 61.78125 44.15625 C 62.18125 44.15625 62.5625 43.775 62.5625 43.375 C 62.5625 42.875 62.28125 42.5625 61.78125 42.5625 z M 64.96875 42.5625 C 64.46875 42.5625 64.15625 42.975 64.15625 43.375 C 64.15625 43.875 64.46875 44.15625 64.96875 44.15625 C 65.46875 44.15625 65.78125 43.775 65.78125 43.375 C 65.78125 42.875 65.46875 42.5625 64.96875 42.5625 z M 68.28125 42.5625 C 67.78125 42.5625 67.46875 42.975 67.46875 43.375 C 67.46875 43.875 67.88125 44.15625 68.28125 44.15625 C 68.68125 44.15625 69.0625 43.775 69.0625 43.375 C 69.0625 42.875 68.68125 42.5625 68.28125 42.5625 z M 71.46875 42.5625 C 71.06875 42.5625 70.65625 42.975 70.65625 43.375 C 70.65625 43.875 71.06875 44.15625 71.46875 44.15625 C 71.96875 44.15625 72.375 43.775 72.375 43.375 C 72.275 42.875 71.86875 42.5625 71.46875 42.5625 z M 74.65625 42.5625 C 74.15625 42.5625 73.875 42.975 73.875 43.375 C 73.875 43.875 74.25625 44.15625 74.65625 44.15625 C 75.05625 44.15625 75.46875 43.775 75.46875 43.375 C 75.46875 42.875 75.15625 42.5625 74.65625 42.5625 z M 77.96875 42.5625 C 77.46875 42.5625 77.15625 42.975 77.15625 43.375 C 77.15625 43.875 77.56875 44.15625 77.96875 44.15625 C 78.36875 44.15625 78.78125 43.775 78.78125 43.375 C 78.78125 42.875 78.36875 42.5625 77.96875 42.5625 z M 81.15625 42.5625 C 80.65625 42.5625 80.375 42.975 80.375 43.375 C 80.375 43.875 80.75625 44.15625 81.15625 44.15625 C 81.55625 44.15625 81.96875 43.775 81.96875 43.375 C 81.96875 42.875 81.55625 42.5625 81.15625 42.5625 z M 84.375 42.5625 C 83.975 42.5625 83.5625 42.975 83.5625 43.375 C 83.5625 43.875 83.975 44.15625 84.375 44.15625 C 84.875 44.15625 85.15625 43.775 85.15625 43.375 C 85.15625 42.875 84.875 42.5625 84.375 42.5625 z M 29.46875 45.65625 C 28.96875 45.65625 28.65625 46.06875 28.65625 46.46875 C 28.65625 46.96875 29.06875 47.25 29.46875 47.25 C 29.86875 47.25 30.28125 46.86875 30.28125 46.46875 C 30.28125 46.06875 29.96875 45.65625 29.46875 45.65625 z M 32.65625 45.65625 C 32.15625 45.65625 31.875 46.06875 31.875 46.46875 C 31.875 46.96875 32.25625 47.25 32.65625 47.25 C 33.05625 47.25 33.46875 46.86875 33.46875 46.46875 C 33.46875 46.06875 33.15625 45.65625 32.65625 45.65625 z M 35.875 45.65625 C 35.475 45.65625 35.0625 46.06875 35.0625 46.46875 C 35.0625 46.96875 35.475 47.25 35.875 47.25 C 36.375 47.25 36.65625 46.86875 36.65625 46.46875 C 36.75625 46.06875 36.375 45.65625 35.875 45.65625 z M 39.15625 45.65625 C 38.65625 45.65625 38.375 46.06875 38.375 46.46875 C 38.375 46.96875 38.65625 47.25 39.15625 47.25 C 39.65625 47.25 39.96875 46.86875 39.96875 46.46875 C 39.96875 46.06875 39.55625 45.65625 39.15625 45.65625 z M 42.375 45.65625 C 41.875 45.65625 41.5625 46.06875 41.5625 46.46875 C 41.5625 46.96875 41.875 47.25 42.375 47.25 C 42.875 47.25 43.15625 46.86875 43.15625 46.46875 C 43.15625 46.06875 42.875 45.65625 42.375 45.65625 z M 45.65625 45.65625 C 45.15625 45.65625 44.78125 46.06875 44.78125 46.46875 C 44.78125 46.96875 45.15625 47.25 45.65625 47.25 C 46.05625 47.25 46.46875 46.86875 46.46875 46.46875 C 46.46875 46.06875 46.05625 45.65625 45.65625 45.65625 z M 48.875 45.65625 C 48.475 45.65625 48.0625 46.06875 48.0625 46.46875 C 48.0625 46.96875 48.475 47.375 48.875 47.375 C 49.375 47.375 49.65625 46.96875 49.65625 46.46875 C 49.65625 46.06875 49.275 45.65625 48.875 45.65625 z M 52.0625 45.65625 C 51.5625 45.65625 51.28125 46.06875 51.28125 46.46875 C 51.28125 46.86875 51.5625 47.25 52.0625 47.25 C 52.5625 47.25 52.875 46.96875 52.875 46.46875 C 52.875 45.96875 52.5625 45.65625 52.0625 45.65625 z M 55.28125 45.65625 C 54.78125 45.65625 54.46875 46.06875 54.46875 46.46875 C 54.46875 46.86875 54.78125 47.25 55.28125 47.25 C 55.78125 47.25 56.0625 46.96875 56.0625 46.46875 C 56.0625 45.96875 55.78125 45.65625 55.28125 45.65625 z M 58.5625 45.65625 C 58.0625 45.65625 57.78125 46.06875 57.78125 46.46875 C 57.78125 46.86875 58.1625 47.25 58.5625 47.25 C 58.9625 47.25 59.375 46.96875 59.375 46.46875 C 59.375 45.96875 58.9625 45.65625 58.5625 45.65625 z M 61.78125 45.65625 C 61.28125 45.65625 60.96875 46.06875 60.96875 46.46875 C 60.96875 46.86875 61.38125 47.25 61.78125 47.25 C 62.18125 47.25 62.5625 46.96875 62.5625 46.46875 C 62.5625 45.96875 62.28125 45.65625 61.78125 45.65625 z M 64.96875 45.65625 C 64.46875 45.65625 64.15625 46.06875 64.15625 46.46875 C 64.15625 46.86875 64.46875 47.25 64.96875 47.25 C 65.46875 47.25 65.78125 46.96875 65.78125 46.46875 C 65.78125 45.96875 65.46875 45.65625 64.96875 45.65625 z M 68.28125 45.65625 C 67.78125 45.65625 67.46875 46.06875 67.46875 46.46875 C 67.46875 46.86875 67.88125 47.25 68.28125 47.25 C 68.68125 47.25 69.0625 46.96875 69.0625 46.46875 C 69.0625 45.96875 68.68125 45.65625 68.28125 45.65625 z M 71.46875 45.65625 C 71.06875 45.65625 70.65625 46.06875 70.65625 46.46875 C 70.65625 46.86875 71.06875 47.25 71.46875 47.25 C 71.96875 47.25 72.375 46.96875 72.375 46.46875 C 72.375 45.96875 71.86875 45.65625 71.46875 45.65625 z M 74.65625 45.65625 C 74.15625 45.65625 73.875 46.06875 73.875 46.46875 C 73.875 46.86875 74.25625 47.25 74.65625 47.25 C 75.05625 47.25 75.46875 46.96875 75.46875 46.46875 C 75.46875 45.96875 75.15625 45.65625 74.65625 45.65625 z M 77.96875 45.65625 C 77.46875 45.65625 77.15625 46.06875 77.15625 46.46875 C 77.15625 46.86875 77.56875 47.25 77.96875 47.25 C 78.36875 47.25 78.78125 46.96875 78.78125 46.46875 C 78.78125 45.96875 78.36875 45.65625 77.96875 45.65625 z M 81.15625 45.65625 C 80.65625 45.65625 80.375 46.06875 80.375 46.46875 C 80.375 46.86875 80.75625 47.25 81.15625 47.25 C 81.55625 47.25 81.96875 46.96875 81.96875 46.46875 C 81.96875 45.96875 81.55625 45.65625 81.15625 45.65625 z M 84.375 45.65625 C 83.975 45.65625 83.5625 46.06875 83.5625 46.46875 C 83.5625 46.86875 83.975 47.25 84.375 47.25 C 84.875 47.25 85.15625 46.96875 85.15625 46.46875 C 85.15625 45.96875 84.875 45.65625 84.375 45.65625 z M 87.65625 45.65625 C 87.15625 45.65625 86.875 46.06875 86.875 46.46875 C 86.875 46.96875 87.25625 47.25 87.65625 47.25 C 88.05625 47.25 88.46875 46.86875 88.46875 46.46875 C 88.36875 46.06875 88.05625 45.65625 87.65625 45.65625 z M 90.875 45.65625 C 90.375 45.65625 90.0625 46.06875 90.0625 46.46875 C 90.0625 46.96875 90.475 47.25 90.875 47.25 C 91.275 47.25 91.65625 46.86875 91.65625 46.46875 C 91.65625 46.06875 91.275 45.65625 90.875 45.65625 z M 94.0625 45.65625 C 93.5625 45.65625 93.28125 46.06875 93.28125 46.46875 C 93.28125 46.96875 93.6625 47.25 94.0625 47.25 C 94.4625 47.25 94.875 46.86875 94.875 46.46875 C 94.875 46.06875 94.4625 45.65625 94.0625 45.65625 z M 29.46875 48.96875 C 28.96875 48.96875 28.65625 49.25 28.65625 49.75 C 28.65625 50.25 29.06875 50.5625 29.46875 50.5625 C 29.86875 50.5625 30.28125 50.15 30.28125 49.75 C 30.28125 49.35 29.96875 48.96875 29.46875 48.96875 z M 32.65625 48.96875 C 32.15625 48.96875 31.875 49.25 31.875 49.75 C 31.875 50.25 32.25625 50.5625 32.65625 50.5625 C 33.05625 50.5625 33.46875 50.15 33.46875 49.75 C 33.46875 49.35 33.15625 48.96875 32.65625 48.96875 z M 35.875 48.96875 C 35.475 48.96875 35.0625 49.25 35.0625 49.75 C 35.0625 50.25 35.475 50.5625 35.875 50.5625 C 36.375 50.5625 36.65625 50.15 36.65625 49.75 C 36.65625 49.35 36.375 48.96875 35.875 48.96875 z M 39.15625 48.96875 C 38.65625 48.96875 38.375 49.25 38.375 49.75 C 38.375 50.25 38.65625 50.5625 39.15625 50.5625 C 39.65625 50.5625 39.96875 50.15 39.96875 49.75 C 39.96875 49.35 39.55625 48.96875 39.15625 48.96875 z M 42.375 48.96875 C 41.875 48.96875 41.5625 49.25 41.5625 49.75 C 41.5625 50.25 41.875 50.5625 42.375 50.5625 C 42.875 50.5625 43.15625 50.15 43.15625 49.75 C 43.15625 49.35 42.875 48.96875 42.375 48.96875 z M 45.65625 48.96875 C 45.15625 48.96875 44.78125 49.25 44.78125 49.75 C 44.78125 50.25 45.15625 50.5625 45.65625 50.5625 C 46.05625 50.5625 46.46875 50.15 46.46875 49.75 C 46.46875 49.35 46.05625 48.96875 45.65625 48.96875 z M 48.875 48.96875 C 48.475 48.96875 48.0625 49.25 48.0625 49.75 C 48.0625 50.25 48.475 50.5625 48.875 50.5625 C 49.375 50.5625 49.65625 50.15 49.65625 49.75 C 49.65625 49.25 49.275 48.96875 48.875 48.96875 z M 52.0625 48.96875 C 51.5625 48.96875 51.28125 49.35 51.28125 49.75 C 51.28125 50.15 51.5625 50.5625 52.0625 50.5625 C 52.5625 50.5625 52.875 50.25 52.875 49.75 C 52.875 49.25 52.5625 48.96875 52.0625 48.96875 z M 55.28125 48.96875 C 54.78125 48.96875 54.46875 49.35 54.46875 49.75 C 54.46875 50.15 54.78125 50.5625 55.28125 50.5625 C 55.78125 50.5625 56.0625 50.25 56.0625 49.75 C 56.0625 49.25 55.78125 48.96875 55.28125 48.96875 z M 58.5625 48.96875 C 58.0625 48.96875 57.78125 49.35 57.78125 49.75 C 57.78125 50.15 58.1625 50.5625 58.5625 50.5625 C 58.9625 50.5625 59.375 50.25 59.375 49.75 C 59.375 49.25 58.9625 48.96875 58.5625 48.96875 z M 61.78125 48.96875 C 61.28125 48.96875 60.96875 49.35 60.96875 49.75 C 60.96875 50.15 61.38125 50.5625 61.78125 50.5625 C 62.18125 50.5625 62.5625 50.25 62.5625 49.75 C 62.5625 49.25 62.28125 48.96875 61.78125 48.96875 z M 64.96875 48.96875 C 64.46875 48.96875 64.15625 49.35 64.15625 49.75 C 64.15625 50.15 64.46875 50.5625 64.96875 50.5625 C 65.46875 50.5625 65.78125 50.25 65.78125 49.75 C 65.78125 49.25 65.46875 48.96875 64.96875 48.96875 z M 68.28125 48.96875 C 67.78125 48.96875 67.46875 49.35 67.46875 49.75 C 67.46875 50.15 67.88125 50.5625 68.28125 50.5625 C 68.68125 50.5625 69.0625 50.25 69.0625 49.75 C 69.0625 49.25 68.68125 48.96875 68.28125 48.96875 z M 71.46875 48.96875 C 71.06875 48.96875 70.65625 49.35 70.65625 49.75 C 70.65625 50.15 71.06875 50.5625 71.46875 50.5625 C 71.96875 50.5625 72.375 50.25 72.375 49.75 C 72.375 49.25 71.86875 48.96875 71.46875 48.96875 z M 74.65625 48.96875 C 74.15625 48.96875 73.875 49.35 73.875 49.75 C 73.875 50.15 74.25625 50.5625 74.65625 50.5625 C 75.05625 50.5625 75.46875 50.25 75.46875 49.75 C 75.46875 49.25 75.15625 48.96875 74.65625 48.96875 z M 77.96875 48.96875 C 77.46875 48.96875 77.15625 49.35 77.15625 49.75 C 77.15625 50.15 77.56875 50.5625 77.96875 50.5625 C 78.36875 50.5625 78.78125 50.25 78.78125 49.75 C 78.78125 49.25 78.36875 48.96875 77.96875 48.96875 z M 81.15625 48.96875 C 80.65625 48.96875 80.375 49.35 80.375 49.75 C 80.375 50.15 80.75625 50.5625 81.15625 50.5625 C 81.55625 50.5625 81.96875 50.25 81.96875 49.75 C 81.96875 49.25 81.55625 48.96875 81.15625 48.96875 z M 84.375 48.96875 C 83.975 48.96875 83.5625 49.35 83.5625 49.75 C 83.5625 50.15 83.975 50.5625 84.375 50.5625 C 84.875 50.5625 85.15625 50.25 85.15625 49.75 C 85.15625 49.25 84.875 48.96875 84.375 48.96875 z M 87.65625 48.96875 C 87.15625 48.96875 86.875 49.35 86.875 49.75 C 86.875 50.15 87.25625 50.5625 87.65625 50.5625 C 88.05625 50.5625 88.46875 50.25 88.46875 49.75 C 88.46875 49.25 88.05625 48.96875 87.65625 48.96875 z M 90.875 48.96875 C 90.375 48.96875 90.0625 49.35 90.0625 49.75 C 90.0625 50.15 90.475 50.5625 90.875 50.5625 C 91.275 50.5625 91.65625 50.25 91.65625 49.75 C 91.65625 49.25 91.275 48.96875 90.875 48.96875 z M 94.0625 48.96875 C 93.5625 48.96875 93.28125 49.35 93.28125 49.75 C 93.28125 50.15 93.6625 50.5625 94.0625 50.5625 C 94.4625 50.5625 94.875 50.25 94.875 49.75 C 94.875 49.25 94.4625 48.96875 94.0625 48.96875 z M 32.65625 52.15625 C 32.15625 52.15625 31.875 52.5625 31.875 53.0625 C 31.875 53.4625 32.25625 53.875 32.65625 53.875 C 33.05625 53.875 33.46875 53.4625 33.46875 53.0625 C 33.46875 52.5625 33.15625 52.15625 32.65625 52.15625 z M 35.875 52.15625 C 35.475 52.15625 35.0625 52.5625 35.0625 53.0625 C 35.0625 53.4625 35.475 53.875 35.875 53.875 C 36.375 53.875 36.65625 53.4625 36.65625 53.0625 C 36.75625 52.5625 36.375 52.15625 35.875 52.15625 z M 39.15625 52.15625 C 38.65625 52.15625 38.375 52.5625 38.375 53.0625 C 38.375 53.4625 38.65625 53.875 39.15625 53.875 C 39.65625 53.875 39.96875 53.4625 39.96875 53.0625 C 39.96875 52.5625 39.55625 52.15625 39.15625 52.15625 z M 42.375 52.15625 C 41.875 52.15625 41.5625 52.5625 41.5625 53.0625 C 41.5625 53.4625 41.875 53.875 42.375 53.875 C 42.875 53.875 43.15625 53.4625 43.15625 53.0625 C 43.15625 52.5625 42.875 52.15625 42.375 52.15625 z M 45.65625 52.15625 C 45.15625 52.15625 44.78125 52.5625 44.78125 53.0625 C 44.78125 53.4625 45.15625 53.875 45.65625 53.875 C 46.05625 53.875 46.46875 53.4625 46.46875 53.0625 C 46.46875 52.5625 46.05625 52.15625 45.65625 52.15625 z M 48.875 52.15625 C 48.475 52.15625 48.0625 52.46875 48.0625 52.96875 C 48.0625 53.46875 48.475 53.75 48.875 53.75 C 49.375 53.75 49.65625 53.36875 49.65625 52.96875 C 49.65625 52.56875 49.275 52.15625 48.875 52.15625 z M 52.0625 52.15625 C 51.5625 52.15625 51.28125 52.5625 51.28125 53.0625 C 51.28125 53.4625 51.5625 53.875 52.0625 53.875 C 52.5625 53.875 52.875 53.4625 52.875 53.0625 C 52.875 52.5625 52.5625 52.15625 52.0625 52.15625 z M 55.28125 52.15625 C 54.78125 52.15625 54.46875 52.5625 54.46875 53.0625 C 54.46875 53.4625 54.78125 53.875 55.28125 53.875 C 55.78125 53.875 56.0625 53.4625 56.0625 53.0625 C 56.0625 52.5625 55.78125 52.15625 55.28125 52.15625 z M 58.5625 52.15625 C 58.0625 52.15625 57.78125 52.5625 57.78125 53.0625 C 57.78125 53.4625 58.1625 53.875 58.5625 53.875 C 58.9625 53.875 59.375 53.4625 59.375 53.0625 C 59.375 52.5625 58.9625 52.15625 58.5625 52.15625 z M 61.78125 52.15625 C 61.28125 52.15625 60.96875 52.5625 60.96875 53.0625 C 60.96875 53.4625 61.38125 53.875 61.78125 53.875 C 62.18125 53.875 62.5625 53.4625 62.5625 53.0625 C 62.5625 52.5625 62.28125 52.15625 61.78125 52.15625 z M 64.96875 52.15625 C 64.46875 52.15625 64.15625 52.5625 64.15625 53.0625 C 64.15625 53.4625 64.46875 53.875 64.96875 53.875 C 65.46875 53.875 65.78125 53.4625 65.78125 53.0625 C 65.78125 52.5625 65.46875 52.15625 64.96875 52.15625 z M 68.28125 52.15625 C 67.78125 52.15625 67.46875 52.5625 67.46875 53.0625 C 67.46875 53.4625 67.88125 53.875 68.28125 53.875 C 68.68125 53.875 69.0625 53.4625 69.0625 53.0625 C 69.0625 52.5625 68.68125 52.15625 68.28125 52.15625 z M 71.46875 52.15625 C 71.06875 52.15625 70.65625 52.5625 70.65625 53.0625 C 70.65625 53.4625 71.06875 53.875 71.46875 53.875 C 71.96875 53.875 72.375 53.4625 72.375 53.0625 C 72.275 52.5625 71.86875 52.15625 71.46875 52.15625 z M 74.65625 52.15625 C 74.15625 52.15625 73.875 52.5625 73.875 53.0625 C 73.875 53.4625 74.25625 53.875 74.65625 53.875 C 75.05625 53.875 75.46875 53.4625 75.46875 53.0625 C 75.46875 52.5625 75.15625 52.15625 74.65625 52.15625 z M 77.96875 52.15625 C 77.46875 52.15625 77.15625 52.5625 77.15625 53.0625 C 77.15625 53.4625 77.56875 53.875 77.96875 53.875 C 78.36875 53.875 78.78125 53.4625 78.78125 53.0625 C 78.78125 52.5625 78.36875 52.15625 77.96875 52.15625 z M 81.15625 52.15625 C 80.65625 52.15625 80.375 52.5625 80.375 53.0625 C 80.375 53.4625 80.75625 53.875 81.15625 53.875 C 81.55625 53.875 81.96875 53.4625 81.96875 53.0625 C 81.96875 52.5625 81.55625 52.15625 81.15625 52.15625 z M 84.375 52.15625 C 83.975 52.15625 83.5625 52.5625 83.5625 53.0625 C 83.5625 53.4625 83.975 53.875 84.375 53.875 C 84.875 53.875 85.15625 53.4625 85.15625 53.0625 C 85.15625 52.5625 84.875 52.15625 84.375 52.15625 z M 87.65625 52.15625 C 87.15625 52.15625 86.875 52.56875 86.875 52.96875 C 86.875 53.36875 87.25625 53.75 87.65625 53.75 C 88.05625 53.75 88.46875 53.36875 88.46875 52.96875 C 88.36875 52.56875 88.05625 52.15625 87.65625 52.15625 z M 90.875 52.15625 C 90.375 52.15625 90.0625 52.56875 90.0625 52.96875 C 90.0625 53.36875 90.475 53.75 90.875 53.75 C 91.275 53.75 91.65625 53.36875 91.65625 52.96875 C 91.65625 52.56875 91.275 52.15625 90.875 52.15625 z M 94.0625 52.15625 C 93.5625 52.15625 93.28125 52.56875 93.28125 52.96875 C 93.28125 53.36875 93.6625 53.75 94.0625 53.75 C 94.4625 53.75 94.875 53.36875 94.875 52.96875 C 94.875 52.56875 94.4625 52.15625 94.0625 52.15625 z M 42.375 55.375 C 41.875 55.375 41.5625 55.75625 41.5625 56.15625 C 41.5625 56.55625 41.875 56.96875 42.375 56.96875 C 42.875 56.96875 43.15625 56.65625 43.15625 56.15625 C 43.15625 55.65625 42.875 55.375 42.375 55.375 z M 45.65625 55.375 C 45.15625 55.375 44.78125 55.75625 44.78125 56.15625 C 44.78125 56.55625 45.15625 56.96875 45.65625 56.96875 C 46.05625 56.96875 46.46875 56.65625 46.46875 56.15625 C 46.46875 55.65625 46.05625 55.375 45.65625 55.375 z M 48.875 55.375 C 48.475 55.375 48.0625 55.75625 48.0625 56.15625 C 48.0625 56.65625 48.475 56.96875 48.875 56.96875 C 49.375 56.96875 49.65625 56.55625 49.65625 56.15625 C 49.65625 55.75625 49.275 55.375 48.875 55.375 z M 52.0625 55.375 C 51.5625 55.375 51.28125 55.75625 51.28125 56.15625 C 51.28125 56.55625 51.5625 56.96875 52.0625 56.96875 C 52.5625 56.96875 52.875 56.65625 52.875 56.15625 C 52.875 55.65625 52.5625 55.375 52.0625 55.375 z M 55.28125 55.375 C 54.78125 55.375 54.46875 55.75625 54.46875 56.15625 C 54.46875 56.55625 54.78125 56.96875 55.28125 56.96875 C 55.78125 56.96875 56.0625 56.65625 56.0625 56.15625 C 56.0625 55.65625 55.78125 55.375 55.28125 55.375 z M 58.5625 55.375 C 58.0625 55.375 57.78125 55.75625 57.78125 56.15625 C 57.78125 56.55625 58.1625 56.96875 58.5625 56.96875 C 58.9625 56.96875 59.375 56.65625 59.375 56.15625 C 59.375 55.65625 58.9625 55.375 58.5625 55.375 z M 61.78125 55.375 C 61.28125 55.375 60.96875 55.75625 60.96875 56.15625 C 60.96875 56.55625 61.38125 57.0625 61.78125 57.0625 C 62.18125 57.0625 62.5625 56.75 62.5625 56.25 C 62.5625 55.75 62.28125 55.375 61.78125 55.375 z M 64.96875 55.375 C 64.46875 55.375 64.15625 55.75625 64.15625 56.15625 C 64.15625 56.55625 64.46875 56.96875 64.96875 56.96875 C 65.46875 56.96875 65.78125 56.65625 65.78125 56.15625 C 65.78125 55.65625 65.46875 55.375 64.96875 55.375 z M 68.28125 55.375 C 67.78125 55.375 67.46875 55.75625 67.46875 56.15625 C 67.46875 56.55625 67.78125 57.0625 68.28125 57.0625 C 68.68125 57.0625 69.0625 56.75 69.0625 56.25 C 69.0625 55.75 68.68125 55.375 68.28125 55.375 z M 71.46875 55.375 C 71.06875 55.375 70.65625 55.75625 70.65625 56.15625 C 70.65625 56.55625 71.06875 56.96875 71.46875 56.96875 C 71.96875 56.96875 72.375 56.65625 72.375 56.15625 C 72.375 55.65625 71.86875 55.375 71.46875 55.375 z M 74.65625 55.375 C 74.15625 55.375 73.875 55.75625 73.875 56.15625 C 73.875 56.55625 74.25625 56.96875 74.65625 56.96875 C 75.05625 56.96875 75.46875 56.65625 75.46875 56.15625 C 75.46875 55.65625 75.15625 55.375 74.65625 55.375 z M 77.96875 55.375 C 77.46875 55.375 77.15625 55.75625 77.15625 56.15625 C 77.15625 56.55625 77.56875 56.96875 77.96875 56.96875 C 78.36875 56.96875 78.78125 56.65625 78.78125 56.15625 C 78.78125 55.65625 78.36875 55.375 77.96875 55.375 z M 81.15625 55.375 C 80.65625 55.375 80.375 55.75625 80.375 56.15625 C 80.375 56.55625 80.75625 56.96875 81.15625 56.96875 C 81.55625 56.96875 81.96875 56.65625 81.96875 56.15625 C 81.96875 55.65625 81.55625 55.375 81.15625 55.375 z M 84.375 55.375 C 83.975 55.375 83.5625 55.75625 83.5625 56.15625 C 83.5625 56.55625 83.975 56.96875 84.375 56.96875 C 84.875 56.96875 85.15625 56.65625 85.15625 56.15625 C 85.15625 55.65625 84.875 55.375 84.375 55.375 z M 87.65625 55.375 C 87.15625 55.375 86.875 55.75625 86.875 56.15625 C 86.875 56.65625 87.25625 56.96875 87.65625 56.96875 C 88.05625 56.96875 88.46875 56.55625 88.46875 56.15625 C 88.36875 55.75625 88.05625 55.375 87.65625 55.375 z M 90.875 55.375 C 90.375 55.375 90.0625 55.75625 90.0625 56.15625 C 90.0625 56.65625 90.475 56.96875 90.875 56.96875 C 91.275 56.96875 91.65625 56.55625 91.65625 56.15625 C 91.65625 55.75625 91.275 55.375 90.875 55.375 z M 48.875 58.5625 C 48.475 58.5625 48.0625 58.975 48.0625 59.375 C 48.0625 59.875 48.475 60.15625 48.875 60.15625 C 49.375 60.15625 49.65625 59.875 49.65625 59.375 C 49.65625 58.975 49.275 58.5625 48.875 58.5625 z M 87.65625 58.5625 C 87.15625 58.5625 86.875 58.975 86.875 59.375 C 86.875 59.875 87.25625 60.15625 87.65625 60.15625 C 88.05625 60.15625 88.46875 59.775 88.46875 59.375 C 88.36875 58.975 88.05625 58.5625 87.65625 58.5625 z M 52.0625 58.65625 C 51.5625 58.65625 51.28125 58.96875 51.28125 59.46875 C 51.28125 59.96875 51.5625 60.25 52.0625 60.25 C 52.5625 60.25 52.875 59.96875 52.875 59.46875 C 52.875 58.96875 52.5625 58.65625 52.0625 58.65625 z M 55.28125 58.65625 C 54.78125 58.65625 54.46875 58.96875 54.46875 59.46875 C 54.46875 59.96875 54.78125 60.25 55.28125 60.25 C 55.78125 60.25 56.0625 59.96875 56.0625 59.46875 C 56.0625 58.96875 55.78125 58.65625 55.28125 58.65625 z M 58.5625 58.65625 C 58.0625 58.65625 57.78125 58.96875 57.78125 59.46875 C 57.78125 59.96875 58.1625 60.25 58.5625 60.25 C 58.9625 60.25 59.375 59.96875 59.375 59.46875 C 59.375 58.96875 58.9625 58.65625 58.5625 58.65625 z M 61.78125 58.65625 C 61.28125 58.65625 60.96875 58.96875 60.96875 59.46875 C 60.96875 59.96875 61.38125 60.25 61.78125 60.25 C 62.18125 60.25 62.5625 59.96875 62.5625 59.46875 C 62.5625 58.96875 62.28125 58.65625 61.78125 58.65625 z M 64.96875 58.65625 C 64.46875 58.65625 64.15625 58.96875 64.15625 59.46875 C 64.15625 59.96875 64.46875 60.25 64.96875 60.25 C 65.46875 60.25 65.78125 59.96875 65.78125 59.46875 C 65.78125 58.96875 65.46875 58.65625 64.96875 58.65625 z M 68.28125 58.65625 C 67.78125 58.65625 67.46875 58.96875 67.46875 59.46875 C 67.46875 59.96875 67.88125 60.25 68.28125 60.25 C 68.68125 60.25 69.0625 59.96875 69.0625 59.46875 C 69.0625 58.96875 68.68125 58.65625 68.28125 58.65625 z M 71.46875 58.65625 C 71.06875 58.65625 70.65625 58.96875 70.65625 59.46875 C 70.65625 59.96875 71.06875 60.25 71.46875 60.25 C 71.96875 60.25 72.375 59.96875 72.375 59.46875 C 72.375 58.96875 71.86875 58.65625 71.46875 58.65625 z M 74.65625 58.65625 C 74.15625 58.65625 73.875 58.96875 73.875 59.46875 C 73.875 59.96875 74.25625 60.25 74.65625 60.25 C 75.05625 60.25 75.46875 59.96875 75.46875 59.46875 C 75.46875 58.96875 75.15625 58.65625 74.65625 58.65625 z M 77.96875 58.65625 C 77.46875 58.65625 77.15625 58.96875 77.15625 59.46875 C 77.15625 59.96875 77.56875 60.25 77.96875 60.25 C 78.36875 60.25 78.78125 59.96875 78.78125 59.46875 C 78.78125 58.96875 78.36875 58.65625 77.96875 58.65625 z M 81.15625 58.65625 C 80.65625 58.65625 80.375 58.96875 80.375 59.46875 C 80.375 59.96875 80.75625 60.25 81.15625 60.25 C 81.55625 60.25 81.96875 59.96875 81.96875 59.46875 C 81.96875 58.96875 81.55625 58.65625 81.15625 58.65625 z M 84.375 58.65625 C 83.975 58.65625 83.5625 58.96875 83.5625 59.46875 C 83.5625 59.96875 83.975 60.25 84.375 60.25 C 84.875 60.25 85.15625 59.96875 85.15625 59.46875 C 85.15625 58.96875 84.875 58.65625 84.375 58.65625 z M 52.0625 61.875 C 51.5625 61.875 51.28125 62.15625 51.28125 62.65625 C 51.28125 63.15625 51.5625 63.46875 52.0625 63.46875 C 52.5625 63.46875 52.875 63.05625 52.875 62.65625 C 52.875 62.25625 52.5625 61.875 52.0625 61.875 z M 55.28125 61.875 C 54.78125 61.875 54.46875 62.15625 54.46875 62.65625 C 54.46875 63.15625 54.78125 63.46875 55.28125 63.46875 C 55.78125 63.46875 56.0625 63.05625 56.0625 62.65625 C 56.0625 62.25625 55.78125 61.875 55.28125 61.875 z M 58.5625 61.875 C 58.0625 61.875 57.78125 62.15625 57.78125 62.65625 C 57.78125 63.15625 58.1625 63.46875 58.5625 63.46875 C 58.9625 63.46875 59.375 63.05625 59.375 62.65625 C 59.375 62.25625 58.9625 61.875 58.5625 61.875 z M 61.78125 61.875 C 61.28125 61.875 60.96875 62.15625 60.96875 62.65625 C 60.96875 63.15625 61.38125 63.46875 61.78125 63.46875 C 62.18125 63.46875 62.5625 63.05625 62.5625 62.65625 C 62.5625 62.25625 62.28125 61.875 61.78125 61.875 z M 64.96875 61.875 C 64.46875 61.875 64.15625 62.15625 64.15625 62.65625 C 64.15625 63.15625 64.46875 63.46875 64.96875 63.46875 C 65.46875 63.46875 65.78125 63.05625 65.78125 62.65625 C 65.78125 62.25625 65.46875 61.875 64.96875 61.875 z M 68.28125 61.875 C 67.78125 61.875 67.46875 62.15625 67.46875 62.65625 C 67.46875 63.15625 67.88125 63.46875 68.28125 63.46875 C 68.68125 63.46875 69.0625 63.05625 69.0625 62.65625 C 69.0625 62.25625 68.68125 61.875 68.28125 61.875 z M 71.46875 61.875 C 71.06875 61.875 70.65625 62.15625 70.65625 62.65625 C 70.65625 63.15625 71.06875 63.46875 71.46875 63.46875 C 71.96875 63.46875 72.375 63.05625 72.375 62.65625 C 72.375 62.25625 71.86875 61.875 71.46875 61.875 z M 74.65625 61.875 C 74.15625 61.875 73.875 62.15625 73.875 62.65625 C 73.875 63.15625 74.25625 63.46875 74.65625 63.46875 C 75.05625 63.46875 75.46875 63.05625 75.46875 62.65625 C 75.46875 62.25625 75.15625 61.875 74.65625 61.875 z M 77.96875 61.875 C 77.46875 61.875 77.15625 62.15625 77.15625 62.65625 C 77.15625 63.15625 77.56875 63.46875 77.96875 63.46875 C 78.36875 63.46875 78.78125 63.05625 78.78125 62.65625 C 78.78125 62.25625 78.36875 61.875 77.96875 61.875 z M 81.15625 61.875 C 80.65625 61.875 80.375 62.15625 80.375 62.65625 C 80.375 63.15625 80.75625 63.46875 81.15625 63.46875 C 81.55625 63.46875 81.96875 63.05625 81.96875 62.65625 C 81.96875 62.25625 81.55625 61.875 81.15625 61.875 z M 84.375 61.875 C 83.975 61.875 83.5625 62.15625 83.5625 62.65625 C 83.5625 63.15625 83.975 63.46875 84.375 63.46875 C 84.875 63.46875 85.15625 63.05625 85.15625 62.65625 C 85.15625 62.25625 84.875 61.875 84.375 61.875 z M 87.65625 61.875 C 87.15625 61.875 86.875 62.15625 86.875 62.65625 C 86.875 63.15625 87.25625 63.46875 87.65625 63.46875 C 88.05625 63.46875 88.46875 63.05625 88.46875 62.65625 C 88.46875 62.25625 88.05625 61.875 87.65625 61.875 z M 55.28125 65.0625 C 54.78125 65.0625 54.46875 65.475 54.46875 65.875 C 54.46875 66.275 54.78125 66.65625 55.28125 66.65625 C 55.78125 66.65625 56.0625 66.275 56.0625 65.875 C 56.0625 65.475 55.78125 65.0625 55.28125 65.0625 z M 58.5625 65.0625 C 58.0625 65.0625 57.78125 65.475 57.78125 65.875 C 57.78125 66.275 58.1625 66.65625 58.5625 66.65625 C 58.9625 66.65625 59.375 66.275 59.375 65.875 C 59.375 65.475 58.9625 65.0625 58.5625 65.0625 z M 61.78125 65.0625 C 61.28125 65.0625 60.96875 65.475 60.96875 65.875 C 60.96875 66.275 61.38125 66.65625 61.78125 66.65625 C 62.18125 66.65625 62.5625 66.275 62.5625 65.875 C 62.5625 65.475 62.28125 65.0625 61.78125 65.0625 z M 64.96875 65.0625 C 64.46875 65.0625 64.15625 65.475 64.15625 65.875 C 64.15625 66.275 64.46875 66.65625 64.96875 66.65625 C 65.46875 66.65625 65.78125 66.275 65.78125 65.875 C 65.78125 65.475 65.46875 65.0625 64.96875 65.0625 z M 68.28125 65.0625 C 67.78125 65.0625 67.46875 65.475 67.46875 65.875 C 67.46875 66.275 67.88125 66.65625 68.28125 66.65625 C 68.68125 66.65625 69.0625 66.275 69.0625 65.875 C 69.0625 65.475 68.68125 65.0625 68.28125 65.0625 z M 71.46875 65.0625 C 71.06875 65.0625 70.65625 65.475 70.65625 65.875 C 70.65625 66.275 71.06875 66.65625 71.46875 66.65625 C 71.96875 66.65625 72.375 66.275 72.375 65.875 C 72.275 65.475 71.86875 65.0625 71.46875 65.0625 z M 74.65625 65.0625 C 74.15625 65.0625 73.875 65.475 73.875 65.875 C 73.875 66.275 74.25625 66.65625 74.65625 66.65625 C 75.05625 66.65625 75.46875 66.275 75.46875 65.875 C 75.46875 65.475 75.15625 65.0625 74.65625 65.0625 z M 77.96875 65.0625 C 77.46875 65.0625 77.15625 65.475 77.15625 65.875 C 77.15625 66.275 77.56875 66.65625 77.96875 66.65625 C 78.36875 66.65625 78.78125 66.275 78.78125 65.875 C 78.78125 65.475 78.36875 65.0625 77.96875 65.0625 z M 81.15625 65.0625 C 80.65625 65.0625 80.375 65.475 80.375 65.875 C 80.375 66.275 80.75625 66.65625 81.15625 66.65625 C 81.55625 66.65625 81.96875 66.275 81.96875 65.875 C 81.96875 65.475 81.55625 65.0625 81.15625 65.0625 z M 84.375 65.0625 C 83.975 65.0625 83.5625 65.475 83.5625 65.875 C 83.5625 66.275 83.975 66.65625 84.375 66.65625 C 84.875 66.65625 85.15625 66.275 85.15625 65.875 C 85.15625 65.475 84.875 65.0625 84.375 65.0625 z M 87.65625 65.0625 C 87.15625 65.0625 86.875 65.475 86.875 65.875 C 86.875 66.275 87.25625 66.65625 87.65625 66.65625 C 88.05625 66.65625 88.46875 66.275 88.46875 65.875 C 88.36875 65.475 88.05625 65.0625 87.65625 65.0625 z M 55.28125 68.375 C 54.78125 68.375 54.46875 68.65625 54.46875 69.15625 C 54.46875 69.65625 54.78125 69.96875 55.28125 69.96875 C 55.78125 69.96875 56.0625 69.55625 56.0625 69.15625 C 56.0625 68.75625 55.78125 68.375 55.28125 68.375 z M 58.5625 68.375 C 58.0625 68.375 57.78125 68.65625 57.78125 69.15625 C 57.78125 69.65625 58.1625 69.96875 58.5625 69.96875 C 58.9625 69.96875 59.375 69.55625 59.375 69.15625 C 59.375 68.75625 58.9625 68.375 58.5625 68.375 z M 61.78125 68.375 C 61.28125 68.375 60.96875 68.65625 60.96875 69.15625 C 60.96875 69.65625 61.38125 69.96875 61.78125 69.96875 C 62.18125 69.96875 62.5625 69.55625 62.5625 69.15625 C 62.5625 68.75625 62.28125 68.375 61.78125 68.375 z M 64.96875 68.375 C 64.46875 68.375 64.15625 68.65625 64.15625 69.15625 C 64.15625 69.65625 64.46875 69.96875 64.96875 69.96875 C 65.46875 69.96875 65.78125 69.55625 65.78125 69.15625 C 65.78125 68.75625 65.46875 68.375 64.96875 68.375 z M 68.28125 68.375 C 67.78125 68.375 67.46875 68.65625 67.46875 69.15625 C 67.46875 69.65625 67.88125 69.96875 68.28125 69.96875 C 68.68125 69.96875 69.0625 69.55625 69.0625 69.15625 C 69.0625 68.75625 68.68125 68.375 68.28125 68.375 z M 71.46875 68.375 C 71.06875 68.375 70.65625 68.65625 70.65625 69.15625 C 70.65625 69.65625 71.06875 69.96875 71.46875 69.96875 C 71.96875 69.96875 72.375 69.55625 72.375 69.15625 C 72.375 68.75625 71.86875 68.375 71.46875 68.375 z M 74.65625 68.375 C 74.15625 68.375 73.875 68.65625 73.875 69.15625 C 73.875 69.65625 74.25625 69.96875 74.65625 69.96875 C 75.05625 69.96875 75.46875 69.55625 75.46875 69.15625 C 75.46875 68.75625 75.15625 68.375 74.65625 68.375 z M 77.96875 68.375 C 77.46875 68.375 77.15625 68.65625 77.15625 69.15625 C 77.15625 69.65625 77.56875 69.96875 77.96875 69.96875 C 78.36875 69.96875 78.78125 69.55625 78.78125 69.15625 C 78.78125 68.75625 78.36875 68.375 77.96875 68.375 z M 81.15625 68.375 C 80.65625 68.375 80.375 68.65625 80.375 69.15625 C 80.375 69.65625 80.75625 69.96875 81.15625 69.96875 C 81.55625 69.96875 81.96875 69.55625 81.96875 69.15625 C 81.96875 68.75625 81.55625 68.375 81.15625 68.375 z M 84.375 68.375 C 83.975 68.375 83.5625 68.65625 83.5625 69.15625 C 83.5625 69.65625 83.975 69.96875 84.375 69.96875 C 84.875 69.96875 85.15625 69.55625 85.15625 69.15625 C 85.15625 68.75625 84.875 68.375 84.375 68.375 z M 87.65625 68.375 C 87.15625 68.375 86.875 68.75625 86.875 69.15625 C 86.875 69.55625 87.25625 69.96875 87.65625 69.96875 C 88.05625 69.96875 88.46875 69.65625 88.46875 69.15625 C 88.46875 68.65625 88.05625 68.375 87.65625 68.375 z M 55.28125 71.5625 C 54.78125 71.5625 54.46875 71.875 54.46875 72.375 C 54.46875 72.875 54.78125 73.15625 55.28125 73.15625 C 55.78125 73.15625 56.0625 72.775 56.0625 72.375 C 56.0625 71.975 55.78125 71.5625 55.28125 71.5625 z M 58.5625 71.5625 C 58.0625 71.5625 57.78125 71.875 57.78125 72.375 C 57.78125 72.875 58.1625 73.15625 58.5625 73.15625 C 58.9625 73.15625 59.375 72.775 59.375 72.375 C 59.375 71.975 58.9625 71.5625 58.5625 71.5625 z M 61.78125 71.5625 C 61.28125 71.5625 60.96875 71.875 60.96875 72.375 C 60.96875 72.875 61.38125 73.15625 61.78125 73.15625 C 62.18125 73.15625 62.5625 72.775 62.5625 72.375 C 62.5625 71.975 62.28125 71.5625 61.78125 71.5625 z M 64.96875 71.5625 C 64.46875 71.5625 64.15625 71.875 64.15625 72.375 C 64.15625 72.875 64.46875 73.15625 64.96875 73.15625 C 65.46875 73.15625 65.78125 72.775 65.78125 72.375 C 65.78125 71.975 65.46875 71.5625 64.96875 71.5625 z M 68.28125 71.5625 C 67.78125 71.5625 67.46875 71.875 67.46875 72.375 C 67.46875 72.875 67.88125 73.15625 68.28125 73.15625 C 68.68125 73.15625 69.0625 72.775 69.0625 72.375 C 69.0625 71.975 68.68125 71.5625 68.28125 71.5625 z M 71.46875 71.5625 C 71.06875 71.5625 70.65625 71.875 70.65625 72.375 C 70.65625 72.875 71.06875 73.15625 71.46875 73.15625 C 71.96875 73.15625 72.375 72.775 72.375 72.375 C 72.375 71.975 71.86875 71.5625 71.46875 71.5625 z M 74.65625 71.5625 C 74.15625 71.5625 73.875 71.875 73.875 72.375 C 73.875 72.875 74.25625 73.15625 74.65625 73.15625 C 75.05625 73.15625 75.46875 72.775 75.46875 72.375 C 75.46875 71.975 75.15625 71.5625 74.65625 71.5625 z M 77.96875 71.5625 C 77.46875 71.5625 77.15625 71.875 77.15625 72.375 C 77.15625 72.875 77.56875 73.15625 77.96875 73.15625 C 78.36875 73.15625 78.78125 72.775 78.78125 72.375 C 78.78125 71.975 78.36875 71.5625 77.96875 71.5625 z M 81.15625 71.5625 C 80.65625 71.5625 80.375 71.875 80.375 72.375 C 80.375 72.875 80.75625 73.15625 81.15625 73.15625 C 81.55625 73.15625 81.96875 72.775 81.96875 72.375 C 81.96875 71.975 81.55625 71.5625 81.15625 71.5625 z M 84.375 71.5625 C 83.975 71.5625 83.5625 71.875 83.5625 72.375 C 83.5625 72.875 83.975 73.15625 84.375 73.15625 C 84.875 73.15625 85.15625 72.775 85.15625 72.375 C 85.15625 71.975 84.875 71.5625 84.375 71.5625 z M 58.5625 74.75 C 58.0625 74.75 57.78125 75.15625 57.78125 75.65625 C 57.78125 76.05625 58.1625 76.46875 58.5625 76.46875 C 58.9625 76.46875 59.375 76.05625 59.375 75.65625 C 59.375 75.15625 58.9625 74.75 58.5625 74.75 z M 61.78125 74.75 C 61.28125 74.75 60.96875 75.15625 60.96875 75.65625 C 60.96875 76.05625 61.38125 76.46875 61.78125 76.46875 C 62.18125 76.46875 62.5625 76.05625 62.5625 75.65625 C 62.5625 75.15625 62.28125 74.75 61.78125 74.75 z M 64.96875 74.75 C 64.46875 74.75 64.15625 75.15625 64.15625 75.65625 C 64.15625 76.05625 64.46875 76.46875 64.96875 76.46875 C 65.46875 76.46875 65.78125 76.05625 65.78125 75.65625 C 65.78125 75.15625 65.46875 74.75 64.96875 74.75 z M 68.28125 74.75 C 67.78125 74.75 67.46875 75.15625 67.46875 75.65625 C 67.46875 76.05625 67.88125 76.46875 68.28125 76.46875 C 68.68125 76.46875 69.0625 76.05625 69.0625 75.65625 C 69.0625 75.15625 68.68125 74.75 68.28125 74.75 z M 71.46875 74.75 C 71.06875 74.75 70.65625 75.15625 70.65625 75.65625 C 70.65625 76.05625 71.06875 76.46875 71.46875 76.46875 C 71.96875 76.46875 72.375 76.05625 72.375 75.65625 C 72.275 75.15625 71.86875 74.75 71.46875 74.75 z M 74.65625 74.75 C 74.15625 74.75 73.875 75.15625 73.875 75.65625 C 73.875 76.05625 74.25625 76.46875 74.65625 76.46875 C 75.05625 76.46875 75.46875 76.05625 75.46875 75.65625 C 75.46875 75.15625 75.15625 74.75 74.65625 74.75 z M 77.96875 74.75 C 77.46875 74.75 77.15625 75.15625 77.15625 75.65625 C 77.15625 76.05625 77.56875 76.46875 77.96875 76.46875 C 78.36875 76.46875 78.78125 76.05625 78.78125 75.65625 C 78.78125 75.15625 78.36875 74.75 77.96875 74.75 z M 81.15625 74.75 C 80.65625 74.75 80.375 75.15625 80.375 75.65625 C 80.375 76.05625 80.75625 76.46875 81.15625 76.46875 C 81.55625 76.46875 81.96875 76.05625 81.96875 75.65625 C 81.96875 75.15625 81.55625 74.75 81.15625 74.75 z M 84.375 74.75 C 83.975 74.75 83.5625 75.15625 83.5625 75.65625 C 83.5625 76.05625 83.975 76.46875 84.375 76.46875 C 84.875 76.46875 85.15625 76.05625 85.15625 75.65625 C 85.15625 75.15625 84.875 74.75 84.375 74.75 z M 61.78125 78.0625 C 61.28125 78.0625 60.96875 78.475 60.96875 78.875 C 60.96875 79.375 61.38125 79.65625 61.78125 79.65625 C 62.18125 79.65625 62.5625 79.275 62.5625 78.875 C 62.5625 78.475 62.28125 78.0625 61.78125 78.0625 z M 64.96875 78.0625 C 64.46875 78.0625 64.15625 78.475 64.15625 78.875 C 64.15625 79.375 64.46875 79.65625 64.96875 79.65625 C 65.46875 79.65625 65.78125 79.275 65.78125 78.875 C 65.78125 78.475 65.46875 78.0625 64.96875 78.0625 z M 68.28125 78.0625 C 67.78125 78.0625 67.46875 78.475 67.46875 78.875 C 67.46875 79.375 67.88125 79.65625 68.28125 79.65625 C 68.68125 79.65625 69.0625 79.275 69.0625 78.875 C 69.0625 78.475 68.68125 78.0625 68.28125 78.0625 z M 71.46875 78.0625 C 71.06875 78.0625 70.65625 78.475 70.65625 78.875 C 70.65625 79.375 71.06875 79.65625 71.46875 79.65625 C 71.96875 79.65625 72.375 79.275 72.375 78.875 C 72.275 78.475 71.86875 78.0625 71.46875 78.0625 z M 74.65625 78.0625 C 74.15625 78.0625 73.875 78.475 73.875 78.875 C 73.875 79.375 74.25625 79.65625 74.65625 79.65625 C 75.05625 79.65625 75.46875 79.275 75.46875 78.875 C 75.46875 78.475 75.15625 78.0625 74.65625 78.0625 z M 61.78125 81.25 C 61.28125 81.25 60.96875 81.6625 60.96875 82.0625 C 60.96875 82.4625 61.38125 82.875 61.78125 82.875 C 62.18125 82.875 62.5625 82.5625 62.5625 82.0625 C 62.5625 81.5625 62.28125 81.25 61.78125 81.25 z M 64.96875 81.25 C 64.46875 81.25 64.15625 81.6625 64.15625 82.0625 C 64.15625 82.4625 64.46875 82.875 64.96875 82.875 C 65.46875 82.875 65.78125 82.5625 65.78125 82.0625 C 65.78125 81.5625 65.46875 81.25 64.96875 81.25 z M 68.28125 81.25 C 67.78125 81.25 67.46875 81.6625 67.46875 82.0625 C 67.46875 82.4625 67.88125 82.875 68.28125 82.875 C 68.68125 82.875 69.0625 82.5625 69.0625 82.0625 C 69.0625 81.5625 68.68125 81.25 68.28125 81.25 z M 71.46875 81.25 C 71.06875 81.25 70.65625 81.6625 70.65625 82.0625 C 70.65625 82.4625 71.06875 82.875 71.46875 82.875 C 71.96875 82.875 72.375 82.5625 72.375 82.0625 C 72.375 81.5625 71.86875 81.25 71.46875 81.25 z M 58.5625 84.46875 C 58.0625 84.46875 57.78125 84.75 57.78125 85.25 C 57.78125 85.75 58.1625 86.0625 58.5625 86.0625 C 58.9625 86.0625 59.375 85.75 59.375 85.25 C 59.375 84.75 58.9625 84.46875 58.5625 84.46875 z M 61.78125 84.46875 C 61.28125 84.46875 60.96875 84.75 60.96875 85.25 C 60.96875 85.75 61.38125 86.0625 61.78125 86.0625 C 62.18125 86.0625 62.5625 85.75 62.5625 85.25 C 62.5625 84.75 62.28125 84.46875 61.78125 84.46875 z M 64.96875 84.46875 C 64.46875 84.46875 64.15625 84.75 64.15625 85.25 C 64.15625 85.75 64.46875 86.0625 64.96875 86.0625 C 65.46875 86.0625 65.78125 85.75 65.78125 85.25 C 65.78125 84.75 65.46875 84.46875 64.96875 84.46875 z M 68.28125 84.46875 C 67.78125 84.46875 67.46875 84.75 67.46875 85.25 C 67.46875 85.75 67.78125 86.0625 68.28125 86.0625 C 68.68125 86.0625 69.0625 85.75 69.0625 85.25 C 69.0625 84.75 68.68125 84.46875 68.28125 84.46875 z M 71.46875 84.46875 C 71.06875 84.46875 70.65625 84.75 70.65625 85.25 C 70.65625 85.75 71.06875 86.0625 71.46875 86.0625 C 71.96875 86.0625 72.375 85.75 72.375 85.25 C 72.375 84.75 71.86875 84.46875 71.46875 84.46875 z M 55.28125 87.65625 C 54.78125 87.65625 54.46875 88.06875 54.46875 88.46875 C 54.46875 88.86875 54.78125 89.25 55.28125 89.25 C 55.78125 89.25 56.0625 88.86875 56.0625 88.46875 C 56.0625 88.06875 55.78125 87.65625 55.28125 87.65625 z M 58.5625 87.65625 C 58.0625 87.65625 57.78125 88.06875 57.78125 88.46875 C 57.78125 88.86875 58.1625 89.25 58.5625 89.25 C 58.9625 89.25 59.375 88.86875 59.375 88.46875 C 59.375 88.06875 58.9625 87.65625 58.5625 87.65625 z M 61.78125 87.65625 C 61.28125 87.65625 60.96875 88.06875 60.96875 88.46875 C 60.96875 88.86875 61.38125 89.25 61.78125 89.25 C 62.18125 89.25 62.5625 88.86875 62.5625 88.46875 C 62.5625 88.06875 62.28125 87.65625 61.78125 87.65625 z M 64.96875 87.65625 C 64.46875 87.65625 64.15625 88.06875 64.15625 88.46875 C 64.15625 88.86875 64.46875 89.25 64.96875 89.25 C 65.46875 89.25 65.78125 88.86875 65.78125 88.46875 C 65.78125 88.06875 65.46875 87.65625 64.96875 87.65625 z M 68.28125 87.65625 C 67.78125 87.65625 67.46875 88.06875 67.46875 88.46875 C 67.46875 88.86875 67.88125 89.25 68.28125 89.25 C 68.68125 89.25 69.0625 88.86875 69.0625 88.46875 C 69.0625 88.06875 68.68125 87.65625 68.28125 87.65625 z M 58.5625 90.96875 C 58.0625 90.96875 57.78125 91.35 57.78125 91.75 C 57.78125 92.25 58.1625 92.65625 58.5625 92.65625 C 58.9625 92.65625 59.375 92.25 59.375 91.75 C 59.375 91.25 58.9625 90.96875 58.5625 90.96875 z M 61.78125 90.96875 C 61.28125 90.96875 60.96875 91.35 60.96875 91.75 C 60.96875 92.25 61.38125 92.65625 61.78125 92.65625 C 62.18125 92.65625 62.5625 92.25 62.5625 91.75 C 62.5625 91.25 62.28125 90.96875 61.78125 90.96875 z M 64.96875 90.96875 C 64.46875 90.96875 64.15625 91.35 64.15625 91.75 C 64.15625 92.25 64.46875 92.65625 64.96875 92.65625 C 65.46875 92.65625 65.78125 92.25 65.78125 91.75 C 65.78125 91.25 65.46875 90.96875 64.96875 90.96875 z M 68.28125 90.96875 C 67.78125 90.96875 67.46875 91.35 67.46875 91.75 C 67.46875 92.25 67.88125 92.65625 68.28125 92.65625 C 68.68125 92.65625 69.0625 92.25 69.0625 91.75 C 69.0625 91.25 68.68125 90.96875 68.28125 90.96875 z M 61.78125 94.15625 C 61.28125 94.15625 60.96875 94.46875 60.96875 94.96875 C 60.96875 95.46875 61.38125 95.75 61.78125 95.75 C 62.18125 95.75 62.5625 95.36875 62.5625 94.96875 C 62.5625 94.56875 62.28125 94.15625 61.78125 94.15625 z M 64.96875 94.15625 C 64.46875 94.15625 64.15625 94.46875 64.15625 94.96875 C 64.15625 95.46875 64.46875 95.75 64.96875 95.75 C 65.46875 95.75 65.78125 95.36875 65.78125 94.96875 C 65.78125 94.56875 65.46875 94.15625 64.96875 94.15625 z " color="#000" font-family="Sans" font-weight="400" overflow="visible" style="text-indent:0;text-align:start;line-height:normal;text-transform:none;block-progression:tb;marker:none;-inkscape-font-specification:Sans"/></svg>